<svg id="svg" xmlns="http://www.w3.org/2000/svg" xmlns:xlink="http://www.w3.org/1999/xlink" width="400" height="400"
     viewBox="0, 0, 400,400">
    <g id="svgg">
        <path
                d="M178.683 28.125 C 171.615 56.286,180.396 75.000,200.678 75.000 C 218.198 75.000,218.750 74.045,218.750 43.750 C 218.750 6.871,187.114 -5.467,178.683 28.125 M66.071 66.071 C 47.754 84.389,71.153 120.778,99.163 117.533 C 123.257 114.741,125.238 87.260,102.627 69.475 C 82.507 53.649,78.836 53.307,66.071 66.071 M297.373 69.475 C 274.762 87.260,276.743 114.741,300.837 117.533 C 312.659 118.903,321.028 114.701,330.525 102.627 C 357.136 68.797,331.203 42.864,297.373 69.475 M153.125 101.044 C 49.529 158.340,84.390 306.250,201.489 306.250 C 309.197 306.250,347.420 169.071,256.740 107.961 C 233.353 92.201,176.032 88.374,153.125 101.044 M12.500 200.000 C 12.500 218.333,13.194 218.750,43.750 218.750 C 74.306 218.750,75.000 218.333,75.000 200.000 C 75.000 181.667,74.306 181.250,43.750 181.250 C 13.194 181.250,12.500 181.667,12.500 200.000 M325.000 200.000 C 325.000 218.333,325.694 218.750,356.250 218.750 C 386.806 218.750,387.500 218.333,387.500 200.000 C 387.500 181.667,386.806 181.250,356.250 181.250 C 325.694 181.250,325.000 181.667,325.000 200.000 M69.475 297.373 C 53.649 317.493,53.307 321.164,66.071 333.929 C 84.389 352.246,120.778 328.847,117.533 300.837 C 114.741 276.743,87.260 274.762,69.475 297.373 M283.811 289.841 C 277.844 305.390,283.449 319.860,300.309 332.435 C 329.168 353.959,353.953 329.208,332.479 300.309 C 318.777 281.870,289.303 275.530,283.811 289.841 M178.683 340.625 C 171.615 368.786,180.396 387.500,200.678 387.500 C 218.198 387.500,218.750 386.545,218.750 356.250 C 218.750 319.371,187.114 307.033,178.683 340.625 "
                stroke="none" fill="var(--svg-img-color-day)" fill-rule="evenodd"></path>
    </g>
</svg>