<svg id="svg" xmlns="http://www.w3.org/2000/svg" xmlns:xlink="http://www.w3.org/1999/xlink" width="400" height="400"
     viewBox="0, 0, 400,400">
    <g id="svgg">
        <path
                d="M129.993 9.085 C -81.608 89.573,-26.131 396.875,200.000 396.875 C 464.065 396.875,470.201 8.950,206.250 1.738 C 172.354 0.812,144.752 3.471,129.993 9.085 M250.000 23.366 C 264.740 27.559,264.394 27.996,243.883 31.093 C 217.120 35.133,202.055 64.405,219.990 77.520 C 229.481 84.459,229.342 85.685,218.285 92.590 C 209.739 97.927,206.250 107.189,206.250 124.542 C 206.250 168.976,217.647 179.329,274.908 186.912 C 301.128 190.385,303.179 192.040,306.604 212.500 C 308.618 224.531,314.987 243.376,320.758 254.377 C 326.528 265.378,331.250 279.581,331.250 285.940 C 331.250 292.298,334.143 300.393,337.679 303.929 C 356.909 323.159,276.546 374.345,218.923 379.570 C 183.238 382.806,126.764 376.170,142.188 370.553 C 146.484 368.989,150.000 359.529,150.000 349.532 C 150.000 338.125,154.655 328.449,162.500 323.550 C 169.375 319.256,175.000 310.245,175.000 303.526 C 175.000 296.807,181.788 284.124,190.085 275.342 C 211.156 253.040,214.101 222.547,195.441 219.895 C 187.777 218.805,175.632 209.665,168.452 199.582 C 158.401 185.466,150.517 181.250,134.169 181.250 C 119.072 181.250,110.932 177.499,105.991 168.265 C 102.168 161.124,95.540 156.624,91.260 158.267 C 82.793 161.516,67.095 141.239,73.285 135.049 C 75.374 132.959,84.349 131.239,93.229 131.227 C 114.630 131.196,148.566 109.986,157.067 91.329 C 160.813 83.106,170.600 73.316,178.814 69.573 C 200.132 59.860,198.857 35.681,176.563 26.871 C 155.801 18.668,222.322 15.492,250.000 23.366 M154.375 43.750 C 168.961 43.750,175.296 56.048,160.938 56.491 C 156.641 56.623,147.500 65.365,140.625 75.918 C 125.840 98.610,105.779 110.371,72.801 115.680 C 49.714 119.396,48.828 120.424,51.198 140.722 C 53.872 163.631,41.856 161.084,35.671 137.430 C 28.278 109.159,115.952 19.702,133.679 37.429 C 137.155 40.905,146.469 43.750,154.375 43.750 M306.598 53.820 L 328.125 70.140 303.125 65.092 C 289.375 62.316,268.984 60.397,257.813 60.828 C 246.641 61.259,237.500 58.999,237.500 55.806 C 237.500 52.613,243.828 49.957,251.563 49.904 C 259.297 49.852,269.844 47.082,275.000 43.750 C 280.156 40.418,284.532 37.648,284.723 37.596 C 284.915 37.543,294.759 44.844,306.598 53.820 M343.388 90.401 C 355.790 98.066,343.377 106.250,319.350 106.250 C 304.664 106.250,291.895 102.060,285.692 95.205 C 275.255 83.672,325.703 79.471,343.388 90.401 M273.001 111.622 C 281.906 125.881,324.291 133.586,346.783 125.035 C 380.500 112.216,394.881 211.284,367.646 268.750 L 354.317 296.875 350.151 275.000 C 347.859 262.969,341.263 244.124,335.492 233.123 C 329.722 222.122,325.000 206.015,325.000 197.329 C 325.000 178.482,300.001 159.674,282.382 165.266 C 256.870 173.363,225.282 152.710,225.096 127.813 C 224.895 100.978,259.129 89.409,273.001 111.622 M51.553 203.005 C 46.778 227.982,60.797 254.347,81.002 258.388 C 97.978 261.783,98.648 263.399,101.383 307.512 C 104.870 363.757,106.217 362.467,75.780 332.030 C 38.552 294.802,23.544 261.098,19.997 206.753 L 16.970 160.381 35.776 173.772 C 50.430 184.207,53.913 190.660,51.553 203.005 M120.833 200.040 C 143.199 200.073,148.378 202.720,157.522 218.790 C 163.378 229.080,172.518 237.500,177.834 237.500 C 192.304 237.500,189.502 252.190,171.875 268.750 C 163.281 276.823,156.250 287.887,156.250 293.336 C 156.250 298.785,150.625 306.756,143.750 311.050 C 136.875 315.343,131.207 325.160,131.154 332.865 C 131.077 344.203,129.903 345.087,125.000 337.500 C 121.668 332.344,118.898 310.401,118.846 288.737 C 118.753 250.565,118.168 249.147,99.868 242.767 C 73.274 233.497,64.496 215.060,79.030 199.001 C 85.354 192.012,91.290 189.496,92.548 193.270 C 93.782 196.972,106.510 200.018,120.833 200.040 "
                stroke="none" fill="var(--svg-img-color)" fill-rule="evenodd"></path>
    </g>
</svg>