<svg id="svg" xmlns="http://www.w3.org/2000/svg" xmlns:xlink="http://www.w3.org/1999/xlink" width="400" height="400"
     viewBox="0, 0, 400,400">
    <g id="svgg">
        <path
                d="M7.500 7.500 C -3.475 18.475,-3.179 352.204,7.813 360.900 C 12.109 364.300,38.135 374.488,65.646 383.541 C 142.423 408.804,168.750 404.708,168.750 367.500 C 168.750 350.336,169.449 350.000,205.161 350.000 C 259.902 350.000,269.856 336.907,267.454 268.063 C 265.665 216.784,265.280 215.625,250.000 215.625 C 235.000 215.625,234.250 217.500,231.250 262.500 L 228.125 309.375 198.438 311.280 L 168.750 313.185 168.750 185.229 C 168.750 114.853,166.982 52.664,164.820 47.032 C 161.429 38.194,165.497 37.054,194.508 38.708 L 228.125 40.625 231.250 78.125 C 234.167 113.125,235.417 115.625,250.000 115.625 C 273.030 115.625,277.239 37.967,255.465 14.790 C 239.287 -2.431,23.767 -8.767,7.500 7.500 M300.000 115.625 L 300.000 150.000 259.179 150.000 C 228.506 150.000,217.456 152.350,214.730 159.455 C 207.731 177.692,224.705 187.500,263.265 187.500 L 300.000 187.500 300.000 218.750 C 300.000 262.996,316.925 261.713,364.258 213.881 C 408.737 168.933,408.708 161.351,363.881 116.992 C 315.146 68.765,300.000 68.441,300.000 115.625 "
                stroke="none" fill="var(--svg-img-color)" fill-rule="evenodd"></path>
    </g>
</svg>