<svg id="svg" xmlns="http://www.w3.org/2000/svg" xmlns:xlink="http://www.w3.org/1999/xlink" width="400" height="400"
     viewBox="0, 0, 400,400">
    <g id="svgg">
        <path
                d="M2.625 27.173 C 0.810 31.904,0.180 52.335,1.225 72.575 L 3.125 109.375 200.000 109.375 L 396.875 109.375 396.875 65.625 L 396.875 21.875 201.401 20.223 C 40.100 18.860,5.349 20.075,2.625 27.173 M7.500 157.500 C -5.579 170.579,-2.092 235.940,12.089 243.530 C 28.456 252.290,371.544 252.290,387.911 243.530 C 402.092 235.940,405.579 170.579,392.500 157.500 C 381.787 146.787,18.213 146.787,7.500 157.500 M4.254 291.579 C -5.105 300.938,-0.344 373.531,9.886 377.456 C 24.974 383.246,383.227 381.787,392.512 375.898 C 398.162 372.314,400.072 358.497,398.762 330.681 L 396.875 290.625 202.692 288.975 C 95.891 288.068,6.594 289.239,4.254 291.579 "
                stroke="none" fill="var(--svg-img-color)" fill-rule="evenodd"></path>
    </g>
</svg>