<svg id="svg" xmlns="http://www.w3.org/2000/svg" xmlns:xlink="http://www.w3.org/1999/xlink" width="400" height="400"
     viewBox="0, 0, 400,400">
    <g id="svgg">
        <path
                d="M27.531 13.156 C 16.538 25.304,15.625 37.511,15.625 172.358 C 15.625 353.320,11.807 345.763,104.851 348.969 C 161.776 350.930,166.813 352.192,184.375 368.898 C 238.847 420.713,331.981 407.835,368.148 343.486 C 402.620 282.151,374.482 199.558,310.938 175.552 C 294.721 169.426,293.744 166.843,293.645 129.842 L 293.540 90.625 249.174 45.313 L 204.808 0.000 122.123 0.000 C 46.000 0.000,38.492 1.044,27.531 13.156 M187.500 52.679 C 187.500 96.130,197.030 106.250,237.946 106.250 L 268.750 106.250 268.750 137.500 C 268.750 164.748,267.123 168.750,256.049 168.750 C 249.064 168.750,232.892 173.533,220.112 179.380 C 206.115 185.783,173.291 191.375,137.562 193.442 C 87.664 196.330,77.919 198.611,76.167 207.813 C 74.332 217.446,79.701 218.750,121.221 218.750 C 185.141 218.750,183.933 235.958,119.813 238.790 C 60.288 241.418,53.378 262.500,112.042 262.500 L 150.000 262.500 150.000 283.864 C 150.000 295.614,151.707 309.676,153.794 315.114 C 157.059 323.623,150.593 325.000,107.365 325.000 C 34.293 325.000,37.500 332.030,37.500 171.875 C 37.500 8.698,31.932 18.750,122.321 18.750 L 187.500 18.750 187.500 52.679 M236.804 86.531 C 219.737 89.117,206.144 72.890,206.510 50.368 C 206.763 34.849,207.426 35.116,228.901 59.375 C 250.396 83.656,250.623 84.437,236.804 86.531 M75.000 165.625 C 75.000 173.223,85.069 175.000,128.125 175.000 C 171.181 175.000,181.250 173.223,181.250 165.625 C 181.250 158.027,171.181 156.250,128.125 156.250 C 85.069 156.250,75.000 158.027,75.000 165.625 M319.842 209.205 C 380.233 250.241,371.444 339.036,303.816 371.128 C 225.469 408.306,142.019 313.544,187.466 239.005 C 215.314 193.332,276.284 179.606,319.842 209.205 M230.946 250.364 C 199.194 288.288,204.271 309.960,237.459 278.164 L 256.250 260.161 256.250 305.539 C 256.250 368.651,276.309 369.850,281.250 307.033 C 284.365 267.429,284.413 267.345,296.281 280.527 C 310.646 296.480,325.000 297.741,325.000 283.049 C 325.000 270.867,276.291 218.750,264.906 218.750 C 260.785 218.750,245.503 232.976,230.946 250.364 "
                stroke="none" fill="var(--svg-img-color)" fill-rule="evenodd"></path>
    </g>
</svg>